STARTFONT 2.1
FONT -Monotype-Arial-Regular-R-Normal--17-120-100-100-P-71-iso8859-9
SIZE 12 100 100
FONTBOUNDINGBOX 20 19 -3 -3

STARTPROPERTIES 24
FOUNDRY "Monotype"
FAMILY_NAME "Arial"
WEIGHT_NAME "Regular"
SLANT "R"
SETWIDTH_NAME "Normal"
ADD_STYLE_NAME ""
PIXEL_SIZE 17
POINT_SIZE 120
RESOLUTION_X 100
RESOLUTION_Y 100
SPACING "P"
AVERAGE_WIDTH 71
CHARSET_REGISTRY "iso8859"
CHARSET_ENCODING "9"
FACE_NAME "Arial ISO Latin5"
_DEC_DEVICE_FONTNAMES "PS=arial-lat5"
COPYRIGHT "Copyright (c) 1994 Monotype Typography Ltd."
CAP_HEIGHT 14
X_HEIGHT 10
WEIGHT 10
QUAD_WIDTH 10
DEFAULT_CHAR 160
FONT_DESCENT 4
FONT_ASCENT 16
ENDPROPERTIES

CHARS 191

STARTCHAR space
ENCODING 32
SWIDTH 333 0
DWIDTH 6 0
BBX 0 0 0 0
BITMAP
ENDCHAR

STARTCHAR exclam
ENCODING 33
SWIDTH 278 0
DWIDTH 5 0
BBX 1 12 2 0
BITMAP
80
80
80
80
80
80
80
80
80
00
80
80
ENDCHAR

STARTCHAR quotedbl
ENCODING 34
SWIDTH 355 0
DWIDTH 6 0
BBX 4 4 1 8
BITMAP
90
90
90
90
ENDCHAR

STARTCHAR numbersign
ENCODING 35
SWIDTH 556 0
DWIDTH 9 0
BBX 11 13 -1 0
BITMAP
0880
0880
0880
0880
7FE0
1100
1100
1100
FFC0
2200
2200
2200
2200
ENDCHAR

STARTCHAR dollar
ENCODING 36
SWIDTH 556 0
DWIDTH 9 0
BBX 7 15 1 -2
BITMAP
10
7C
92
92
90
50
38
14
12
12
92
94
78
10
10
ENDCHAR

STARTCHAR percent
ENCODING 37
SWIDTH 889 0
DWIDTH 15 0
BBX 13 12 1 0
BITMAP
7040
8880
8880
8900
8900
7200
0270
0488
0488
0888
0888
1070
ENDCHAR

STARTCHAR ampersand
ENCODING 38
SWIDTH 667 0
DWIDTH 11 0
BBX 9 12 1 0
BITMAP
1C00
2200
2200
2200
1400
3800
4480
8280
8100
8300
8500
7880
ENDCHAR

STARTCHAR quoteright
ENCODING 39
SWIDTH 222 0
DWIDTH 4 0
BBX 2 4 1 8
BITMAP
C0
40
40
80
ENDCHAR

STARTCHAR parenleft
ENCODING 40
SWIDTH 333 0
DWIDTH 6 0
BBX 4 15 1 -3
BITMAP
10
20
60
40
C0
80
80
80
80
80
C0
40
60
20
10
ENDCHAR

STARTCHAR parenright
ENCODING 41
SWIDTH 333 0
DWIDTH 6 0
BBX 4 15 1 -3
BITMAP
80
40
60
20
30
10
10
10
10
10
30
20
60
40
80
ENDCHAR

STARTCHAR asterisk
ENCODING 42
SWIDTH 389 0
DWIDTH 7 0
BBX 5 5 1 7
BITMAP
20
F8
20
F8
50
ENDCHAR

STARTCHAR plus
ENCODING 43
SWIDTH 584 0
DWIDTH 10 0
BBX 7 7 1 3
BITMAP
10
10
10
FE
10
10
10
ENDCHAR

STARTCHAR comma
ENCODING 44
SWIDTH 278 0
DWIDTH 5 0
BBX 2 4 1 -2
BITMAP
C0
40
40
80
ENDCHAR

STARTCHAR minus
ENCODING 45
SWIDTH 584 0
DWIDTH 10 0
BBX 8 1 1 6
BITMAP
FF
ENDCHAR

STARTCHAR period
ENCODING 46
SWIDTH 278 0
DWIDTH 5 0
BBX 1 2 2 0
BITMAP
80
80
ENDCHAR

STARTCHAR slash
ENCODING 47
SWIDTH 278 0
DWIDTH 5 0
BBX 4 12 0 0
BITMAP
10
10
10
20
20
20
40
40
40
80
80
80
ENDCHAR

STARTCHAR zero
ENCODING 48
SWIDTH 556 0
DWIDTH 9 0
BBX 7 12 1 0
BITMAP
38
44
44
82
82
82
82
82
82
44
44
38
ENDCHAR

STARTCHAR one
ENCODING 49
SWIDTH 556 0
DWIDTH 9 0
BBX 4 12 2 0
BITMAP
10
30
70
D0
10
10
10
10
10
10
10
10
ENDCHAR

STARTCHAR two
ENCODING 50
SWIDTH 556 0
DWIDTH 9 0
BBX 7 12 1 0
BITMAP
38
44
82
02
02
02
04
08
10
20
40
FE
ENDCHAR

STARTCHAR three
ENCODING 51
SWIDTH 556 0
DWIDTH 9 0
BBX 7 12 1 0
BITMAP
78
84
82
02
04
38
04
02
02
82
84
78
ENDCHAR

STARTCHAR four
ENCODING 52
SWIDTH 556 0
DWIDTH 9 0
BBX 9 12 0 0
BITMAP
0200
0600
0A00
1200
1200
2200
4200
4200
FF80
0200
0200
0200
ENDCHAR

STARTCHAR five
ENCODING 53
SWIDTH 556 0
DWIDTH 9 0
BBX 7 12 1 0
BITMAP
7E
40
40
40
F8
84
02
02
02
82
84
78
ENDCHAR

STARTCHAR six
ENCODING 54
SWIDTH 556 0
DWIDTH 9 0
BBX 7 12 1 0
BITMAP
3C
42
42
80
B8
C4
82
82
82
82
44
38
ENDCHAR

STARTCHAR seven
ENCODING 55
SWIDTH 556 0
DWIDTH 9 0
BBX 8 12 1 0
BITMAP
FF
02
04
08
08
10
10
10
20
20
20
20
ENDCHAR

STARTCHAR eight
ENCODING 56
SWIDTH 556 0
DWIDTH 9 0
BBX 7 12 1 0
BITMAP
38
44
82
82
44
38
44
82
82
82
44
38
ENDCHAR

STARTCHAR nine
ENCODING 57
SWIDTH 556 0
DWIDTH 9 0
BBX 7 12 1 0
BITMAP
38
44
82
82
82
82
46
3A
02
84
84
78
ENDCHAR

STARTCHAR colon
ENCODING 58
SWIDTH 278 0
DWIDTH 5 0
BBX 1 9 2 0
BITMAP
80
80
00
00
00
00
00
80
80
ENDCHAR

STARTCHAR semicolon
ENCODING 59
SWIDTH 278 0
DWIDTH 5 0
BBX 2 11 1 -2
BITMAP
40
40
00
00
00
00
00
C0
40
40
80
ENDCHAR

STARTCHAR less
ENCODING 60
SWIDTH 584 0
DWIDTH 10 0
BBX 8 8 1 2
BITMAP
03
0C
30
C0
C0
30
0C
03
ENDCHAR

STARTCHAR equal
ENCODING 61
SWIDTH 584 0
DWIDTH 10 0
BBX 8 5 1 4
BITMAP
FF
00
00
00
FF
ENDCHAR

STARTCHAR greater
ENCODING 62
SWIDTH 584 0
DWIDTH 10 0
BBX 8 8 1 2
BITMAP
C0
30
0C
03
03
0C
30
C0
ENDCHAR

STARTCHAR question
ENCODING 63
SWIDTH 556 0
DWIDTH 9 0
BBX 7 12 1 0
BITMAP
78
84
82
02
02
04
08
10
10
00
10
10
ENDCHAR

STARTCHAR at
ENCODING 64
SWIDTH 1015 0
DWIDTH 17 0
BBX 15 15 1 -3
BITMAP
0FE0
3018
600C
43B4
8462
8C22
8822
9022
9026
9044
89C8
4770
6006
301C
0FF0
ENDCHAR

STARTCHAR A
ENCODING 65
SWIDTH 667 0
DWIDTH 11 0
BBX 10 12 1 0
BITMAP
0C00
0C00
1200
1200
1200
2100
2100
7F80
4080
4080
8040
8040
ENDCHAR

STARTCHAR B
ENCODING 66
SWIDTH 667 0
DWIDTH 11 0
BBX 8 12 2 0
BITMAP
FC
82
81
81
82
FC
82
81
81
81
82
FC
ENDCHAR

STARTCHAR C
ENCODING 67
SWIDTH 722 0
DWIDTH 12 0
BBX 9 12 2 0
BITMAP
1E00
6100
4080
8000
8000
8000
8000
8000
8000
4080
6100
1E00
ENDCHAR

STARTCHAR D
ENCODING 68
SWIDTH 722 0
DWIDTH 12 0
BBX 9 12 2 0
BITMAP
FC00
8300
8100
8080
8080
8080
8080
8080
8080
8100
8300
FC00
ENDCHAR

STARTCHAR E
ENCODING 69
SWIDTH 667 0
DWIDTH 11 0
BBX 8 12 2 0
BITMAP
FF
80
80
80
80
FE
80
80
80
80
80
FF
ENDCHAR

STARTCHAR F
ENCODING 70
SWIDTH 611 0
DWIDTH 10 0
BBX 7 12 2 0
BITMAP
FE
80
80
80
80
FC
80
80
80
80
80
80
ENDCHAR

STARTCHAR G
ENCODING 71
SWIDTH 778 0
DWIDTH 13 0
BBX 10 12 2 0
BITMAP
1F00
6080
4040
8000
8000
8000
83C0
8040
8040
4040
6180
1E00
ENDCHAR

STARTCHAR H
ENCODING 72
SWIDTH 722 0
DWIDTH 12 0
BBX 9 12 2 0
BITMAP
8080
8080
8080
8080
8080
FF80
8080
8080
8080
8080
8080
8080
ENDCHAR

STARTCHAR I
ENCODING 73
SWIDTH 278 0
DWIDTH 4 0
BBX 1 12 2 0
BITMAP
80
80
80
80
80
80
80
80
80
80
80
80
ENDCHAR

STARTCHAR J
ENCODING 74
SWIDTH 500 0
DWIDTH 9 0
BBX 7 12 1 0
BITMAP
02
02
02
02
02
02
02
02
02
82
84
78
ENDCHAR

STARTCHAR K
ENCODING 75
SWIDTH 667 0
DWIDTH 11 0
BBX 9 12 2 0
BITMAP
8100
8200
8400
8800
9000
A000
D000
8800
8400
8200
8100
8080
ENDCHAR

STARTCHAR L
ENCODING 76
SWIDTH 556 0
DWIDTH 9 0
BBX 7 12 2 0
BITMAP
80
80
80
80
80
80
80
80
80
80
80
FE
ENDCHAR

STARTCHAR M
ENCODING 77
SWIDTH 833 0
DWIDTH 15 0
BBX 12 12 2 0
BITMAP
E070
A050
A050
B0D0
9090
9090
9990
8910
8910
8910
8610
8610
ENDCHAR

STARTCHAR N
ENCODING 78
SWIDTH 722 0
DWIDTH 12 0
BBX 9 12 2 0
BITMAP
8080
C080
A080
A080
9080
8880
8880
8480
8280
8180
8180
8080
ENDCHAR

STARTCHAR O
ENCODING 79
SWIDTH 778 0
DWIDTH 13 0
BBX 10 12 2 0
BITMAP
1E00
6180
4080
8040
8040
8040
8040
8040
8040
4080
6180
1E00
ENDCHAR

STARTCHAR P
ENCODING 80
SWIDTH 667 0
DWIDTH 11 0
BBX 8 12 2 0
BITMAP
FC
82
81
81
81
82
FC
80
80
80
80
80
ENDCHAR

STARTCHAR Q
ENCODING 81
SWIDTH 778 0
DWIDTH 13 0
BBX 11 13 2 -1
BITMAP
1E00
6180
4080
8040
8040
8040
8040
8040
8040
4680
6380
1EC0
0060
ENDCHAR

STARTCHAR R
ENCODING 82
SWIDTH 722 0
DWIDTH 12 0
BBX 10 12 2 0
BITMAP
FE00
8100
8080
8080
8100
FE00
8400
8200
8100
8100
8080
8040
ENDCHAR

STARTCHAR S
ENCODING 83
SWIDTH 667 0
DWIDTH 11 0
BBX 8 12 2 0
BITMAP
3C
42
81
80
40
38
06
01
01
81
42
3C
ENDCHAR

STARTCHAR T
ENCODING 84
SWIDTH 611 0
DWIDTH 10 0
BBX 9 12 1 0
BITMAP
FF80
0800
0800
0800
0800
0800
0800
0800
0800
0800
0800
0800
ENDCHAR

STARTCHAR U
ENCODING 85
SWIDTH 722 0
DWIDTH 12 0
BBX 9 12 2 0
BITMAP
8080
8080
8080
8080
8080
8080
8080
8080
8080
8080
4100
3E00
ENDCHAR

STARTCHAR V
ENCODING 86
SWIDTH 667 0
DWIDTH 11 0
BBX 10 12 1 0
BITMAP
8040
8040
4080
4080
4080
2100
2100
2100
1200
1200
0C00
0C00
ENDCHAR

STARTCHAR W
ENCODING 87
SWIDTH 944 0
DWIDTH 16 0
BBX 15 12 1 0
BITMAP
8102
8102
4104
4284
4284
2288
2448
2448
1450
1450
1830
1830
ENDCHAR

STARTCHAR X
ENCODING 88
SWIDTH 667 0
DWIDTH 10 0
BBX 9 12 1 0
BITMAP
8080
4100
2200
2200
1400
0800
0800
1400
2200
2200
4100
8080
ENDCHAR

STARTCHAR Y
ENCODING 89
SWIDTH 667 0
DWIDTH 12 0
BBX 11 12 1 0
BITMAP
8020
4040
2080
2080
1100
0A00
0400
0400
0400
0400
0400
0400
ENDCHAR

STARTCHAR Z
ENCODING 90
SWIDTH 611 0
DWIDTH 10 0
BBX 9 12 1 0
BITMAP
FF80
0080
0100
0200
0400
0800
0800
1000
2000
4000
8000
FF80
ENDCHAR

STARTCHAR bracketleft
ENCODING 91
SWIDTH 278 0
DWIDTH 5 0
BBX 3 15 1 -3
BITMAP
E0
80
80
80
80
80
80
80
80
80
80
80
80
80
E0
ENDCHAR

STARTCHAR backslash
ENCODING 92
SWIDTH 278 0
DWIDTH 5 0
BBX 4 12 0 0
BITMAP
80
80
C0
40
40
60
20
20
20
30
10
10
ENDCHAR

STARTCHAR bracketright
ENCODING 93
SWIDTH 278 0
DWIDTH 5 0
BBX 3 15 1 -3
BITMAP
E0
20
20
20
20
20
20
20
20
20
20
20
20
20
E0
ENDCHAR

STARTCHAR asciicircum
ENCODING 94
SWIDTH 469 0
DWIDTH 8 0
BBX 6 6 1 6
BITMAP
30
30
48
48
84
84
ENDCHAR

STARTCHAR underscore
ENCODING 95
SWIDTH 556 0
DWIDTH 9 0
BBX 10 1 0 -2
BITMAP
FFC0
ENDCHAR

STARTCHAR quoteleft
ENCODING 96
SWIDTH 222 0
DWIDTH 4 0
BBX 2 4 1 8
BITMAP
40
80
80
C0
ENDCHAR

STARTCHAR a
ENCODING 97
SWIDTH 556 0
DWIDTH 9 0
BBX 8 9 1 0
BITMAP
7C
86
82
06
7A
82
82
86
7B
ENDCHAR

STARTCHAR b
ENCODING 98
SWIDTH 556 0
DWIDTH 9 0
BBX 7 12 1 0
BITMAP
80
80
80
B8
C4
82
82
82
82
82
C4
B8
ENDCHAR

STARTCHAR c
ENCODING 99
SWIDTH 500 0
DWIDTH 9 0
BBX 7 9 1 0
BITMAP
3C
42
82
80
80
80
82
42
3C
ENDCHAR

STARTCHAR d
ENCODING 100
SWIDTH 556 0
DWIDTH 9 0
BBX 7 12 1 0
BITMAP
02
02
02
3A
46
82
82
82
82
82
46
3A
ENDCHAR

STARTCHAR e
ENCODING 101
SWIDTH 556 0
DWIDTH 9 0
BBX 7 9 1 0
BITMAP
38
44
82
82
FE
80
80
42
3C
ENDCHAR

STARTCHAR f
ENCODING 102
SWIDTH 278 0
DWIDTH 5 0
BBX 6 12 0 0
BITMAP
1C
30
20
F8
20
20
20
20
20
20
20
20
ENDCHAR

STARTCHAR g
ENCODING 103
SWIDTH 556 0
DWIDTH 9 0
BBX 7 12 1 -3
BITMAP
3A
46
82
82
82
82
82
46
3A
02
84
78
ENDCHAR

STARTCHAR h
ENCODING 104
SWIDTH 556 0
DWIDTH 9 0
BBX 7 12 1 0
BITMAP
80
80
80
B8
C4
82
82
82
82
82
82
82
ENDCHAR

STARTCHAR i
ENCODING 105
SWIDTH 222 0
DWIDTH 5 0
BBX 1 12 2 0
BITMAP
80
80
00
80
80
80
80
80
80
80
80
80
ENDCHAR

STARTCHAR j
ENCODING 106
SWIDTH 222 0
DWIDTH 4 0
BBX 4 15 -1 -3
BITMAP
10
10
00
10
10
10
10
10
10
10
10
10
10
10
E0
ENDCHAR

STARTCHAR k
ENCODING 107
SWIDTH 500 0
DWIDTH 9 0
BBX 7 12 1 0
BITMAP
80
80
80
84
88
90
A0
E0
90
88
84
82
ENDCHAR

STARTCHAR l
ENCODING 108
SWIDTH 222 0
DWIDTH 4 0
BBX 1 12 2 0
BITMAP
80
80
80
80
80
80
80
80
80
80
80
80
ENDCHAR

STARTCHAR m
ENCODING 109
SWIDTH 833 0
DWIDTH 13 0
BBX 11 9 1 0
BITMAP
B9C0
C620
8420
8420
8420
8420
8420
8420
8420
ENDCHAR

STARTCHAR n
ENCODING 110
SWIDTH 556 0
DWIDTH 9 0
BBX 7 9 1 0
BITMAP
B8
C4
82
82
82
82
82
82
82
ENDCHAR

STARTCHAR o
ENCODING 111
SWIDTH 556 0
DWIDTH 9 0
BBX 7 9 1 0
BITMAP
38
44
82
82
82
82
82
44
38
ENDCHAR

STARTCHAR p
ENCODING 112
SWIDTH 556 0
DWIDTH 9 0
BBX 7 12 1 -3
BITMAP
B8
C4
82
82
82
82
82
C4
B8
80
80
80
ENDCHAR

STARTCHAR q
ENCODING 113
SWIDTH 556 0
DWIDTH 9 0
BBX 7 12 1 -3
BITMAP
3A
46
82
82
82
82
82
46
3A
02
02
02
ENDCHAR

STARTCHAR r
ENCODING 114
SWIDTH 333 0
DWIDTH 6 0
BBX 5 9 1 0
BITMAP
B8
C0
80
80
80
80
80
80
80
ENDCHAR

STARTCHAR s
ENCODING 115
SWIDTH 500 0
DWIDTH 9 0
BBX 7 9 1 0
BITMAP
7C
82
82
60
1C
02
82
82
7C
ENDCHAR

STARTCHAR t
ENCODING 116
SWIDTH 278 0
DWIDTH 5 0
BBX 5 12 1 0
BITMAP
40
40
40
F0
40
40
40
40
40
40
40
38
ENDCHAR

STARTCHAR u
ENCODING 117
SWIDTH 556 0
DWIDTH 9 0
BBX 7 9 1 0
BITMAP
82
82
82
82
82
82
82
46
3A
ENDCHAR

STARTCHAR v
ENCODING 118
SWIDTH 500 0
DWIDTH 8 0
BBX 8 9 0 0
BITMAP
81
81
42
42
42
24
24
18
18
ENDCHAR

STARTCHAR w
ENCODING 119
SWIDTH 722 0
DWIDTH 13 0
BBX 13 9 0 0
BITMAP
8208
8208
4510
4510
4890
28A0
28A0
1040
1040
ENDCHAR

STARTCHAR x
ENCODING 120
SWIDTH 500 0
DWIDTH 9 0
BBX 7 9 1 0
BITMAP
82
44
28
28
10
28
28
44
82
ENDCHAR

STARTCHAR y
ENCODING 121
SWIDTH 500 0
DWIDTH 9 0
BBX 9 12 0 -3
BITMAP
8080
4080
4100
2100
2200
1200
1400
0C00
0800
1000
1000
6000
ENDCHAR

STARTCHAR z
ENCODING 122
SWIDTH 500 0
DWIDTH 9 0
BBX 7 9 1 0
BITMAP
FE
02
04
08
08
10
20
40
FE
ENDCHAR

STARTCHAR braceleft
ENCODING 123
SWIDTH 334 0
DWIDTH 6 0
BBX 5 15 0 -3
BITMAP
18
20
20
20
20
20
40
C0
40
20
20
20
20
20
18
ENDCHAR

STARTCHAR bar
ENCODING 124
SWIDTH 260 0
DWIDTH 4 0
BBX 1 15 2 -3
BITMAP
80
80
80
80
80
80
80
80
80
80
80
80
80
80
80
ENDCHAR

STARTCHAR braceright
ENCODING 125
SWIDTH 334 0
DWIDTH 6 0
BBX 5 15 0 -3
BITMAP
C0
20
20
20
20
20
10
18
10
20
20
20
20
20
C0
ENDCHAR

STARTCHAR asciitilde
ENCODING 126
SWIDTH 584 0
DWIDTH 10 0
BBX 8 3 1 4
BITMAP
71
99
8E
ENDCHAR

STARTCHAR space
ENCODING 160
SWIDTH 333 0
DWIDTH 7 0
BBX 0 0 0 0
BITMAP
ENDCHAR

STARTCHAR exclamdown
ENCODING 161
SWIDTH 333 0
DWIDTH 5 0
BBX 1 12 2 -3
BITMAP
80
80
00
80
80
80
80
80
80
80
80
80
ENDCHAR

STARTCHAR cent
ENCODING 162
SWIDTH 556 0
DWIDTH 9 0
BBX 8 15 1 -3
BITMAP
02
02
04
3C
66
49
88
88
90
51
72
3C
20
40
40
ENDCHAR

STARTCHAR sterling
ENCODING 163
SWIDTH 556 0
DWIDTH 9 0
BBX 10 12 -1 0
BITMAP
0F00
1980
30C0
2000
2000
3000
7E00
1000
3000
2000
6000
FFC0
ENDCHAR

STARTCHAR currency
ENCODING 164
SWIDTH 556 0
DWIDTH 9 0
BBX 9 9 0 2
BITMAP
8080
5D00
6300
4100
4100
4100
6300
5D00
8080
ENDCHAR

STARTCHAR yen
ENCODING 165
SWIDTH 556 0
DWIDTH 9 0
BBX 9 12 0 0
BITMAP
C180
4100
6300
2200
3600
1C00
FF80
0800
FF80
0800
0800
0800
ENDCHAR

STARTCHAR brokenbar
ENCODING 166
SWIDTH 260 0
DWIDTH 4 0
BBX 1 15 2 -3
BITMAP
80
80
80
80
80
80
00
00
00
80
80
80
80
80
80
ENDCHAR

STARTCHAR section
ENCODING 167
SWIDTH 556 0
DWIDTH 9 0
BBX 8 15 1 -3
BITMAP
3E
43
41
20
70
DC
86
C3
61
3B
0E
03
41
63
3E
ENDCHAR

STARTCHAR dieresis
ENCODING 168
SWIDTH 333 0
DWIDTH 6 0
BBX 4 2 1 10
BITMAP
90
90
ENDCHAR

STARTCHAR copyright
ENCODING 169
SWIDTH 737 0
DWIDTH 13 0
BBX 12 12 0 0
BITMAP
0F00
30C0
4020
4720
8990
9010
9010
9010
49A0
4720
30C0
0F00
ENDCHAR

STARTCHAR ordfeminine
ENCODING 170
SWIDTH 370 0
DWIDTH 6 0
BBX 6 6 0 6
BITMAP
70
C8
38
C8
98
74
ENDCHAR

STARTCHAR guillemotleft
ENCODING 171
SWIDTH 556 0
DWIDTH 9 0
BBX 7 6 1 1
BITMAP
36
48
D8
D8
48
36
ENDCHAR

STARTCHAR logicalnot
ENCODING 172
SWIDTH 584 0
DWIDTH 10 0
BBX 8 5 1 3
BITMAP
FF
01
01
01
01
ENDCHAR

STARTCHAR hyphen
ENCODING 173
SWIDTH 333 0
DWIDTH 6 0
BBX 4 1 1 4
BITMAP
F0
ENDCHAR

STARTCHAR registered
ENCODING 174
SWIDTH 737 0
DWIDTH 13 0
BBX 13 12 0 0
BITMAP
0F80
3060
6030
4F10
8888
8888
8F08
8908
4890
6030
3060
0F80
ENDCHAR

STARTCHAR macron
ENCODING 175
SWIDTH 333 0
DWIDTH 6 0
BBX 5 1 0 10
BITMAP
F8
ENDCHAR

STARTCHAR degree
ENCODING 176
SWIDTH 400 0
DWIDTH 7 0
BBX 5 5 1 7
BITMAP
70
88
88
88
70
ENDCHAR

STARTCHAR plusminus
ENCODING 177
SWIDTH 584 0
DWIDTH 10 0
BBX 7 9 1 0
BITMAP
10
10
10
FE
10
10
10
00
FE
ENDCHAR

STARTCHAR twosuperior
ENCODING 178
SWIDTH 333 0
DWIDTH 6 0
BBX 5 6 0 6
BITMAP
70
88
08
30
40
F8
ENDCHAR

STARTCHAR threesuperior
ENCODING 179
SWIDTH 333 0
DWIDTH 6 0
BBX 5 6 0 6
BITMAP
F0
08
30
08
88
70
ENDCHAR

STARTCHAR acute
ENCODING 180
SWIDTH 333 0
DWIDTH 6 0
BBX 3 2 2 10
BITMAP
60
80
ENDCHAR

STARTCHAR mu
ENCODING 181
SWIDTH 556 0
DWIDTH 9 0
BBX 7 12 1 -3
BITMAP
82
82
82
82
82
82
82
C6
BA
80
80
80
ENDCHAR

STARTCHAR paragraph
ENCODING 182
SWIDTH 537 0
DWIDTH 9 0
BBX 9 15 0 -3
BITMAP
3F80
7900
F900
F900
F900
7900
3900
0900
0900
0900
0900
0900
0900
0900
0900
ENDCHAR

STARTCHAR periodcentered
ENCODING 183
SWIDTH 278 0
DWIDTH 5 0
BBX 2 2 1 5
BITMAP
C0
C0
ENDCHAR

STARTCHAR cedilla
ENCODING 184
SWIDTH 333 0
DWIDTH 6 0
BBX 3 3 1 -3
BITMAP
40
20
C0
ENDCHAR

STARTCHAR onesuperior
ENCODING 185
SWIDTH 333 0
DWIDTH 6 0
BBX 3 6 1 6
BITMAP
20
E0
20
20
20
20
ENDCHAR

STARTCHAR ordmasculine
ENCODING 186
SWIDTH 365 0
DWIDTH 6 0
BBX 5 6 1 6
BITMAP
70
D8
88
88
D8
70
ENDCHAR

STARTCHAR guillemotright
ENCODING 187
SWIDTH 556 0
DWIDTH 9 0
BBX 7 6 1 1
BITMAP
D8
24
36
36
24
D8
ENDCHAR

STARTCHAR onequarter
ENCODING 188
SWIDTH 834 0
DWIDTH 14 0
BBX 13 12 1 0
BITMAP
2020
E040
2080
2100
2100
2200
0410
0830
0850
1090
21F8
4010
ENDCHAR

STARTCHAR onehalf
ENCODING 189
SWIDTH 834 0
DWIDTH 14 0
BBX 13 12 1 0
BITMAP
2020
E040
2080
2100
2100
2200
0470
0888
0810
1020
2040
40F8
ENDCHAR

STARTCHAR threequarters
ENCODING 190
SWIDTH 834 0
DWIDTH 14 0
BBX 14 12 0 0
BITMAP
F008
0810
3020
0840
88C0
7180
0308
0218
0428
0848
10FC
2008
ENDCHAR

STARTCHAR questiondown
ENCODING 191
SWIDTH 611 0
DWIDTH 9 0
BBX 7 12 1 -3
BITMAP
10
10
00
10
10
20
40
80
80
82
42
3C
ENDCHAR

STARTCHAR Agrave
ENCODING 192
SWIDTH 667 0
DWIDTH 11 0
BBX 10 15 1 0
BITMAP
1800
0400
0000
0C00
0C00
1200
1200
1200
2100
2100
7F80
4080
4080
8040
8040
ENDCHAR

STARTCHAR Aacute
ENCODING 193
SWIDTH 667 0
DWIDTH 11 0
BBX 10 15 1 0
BITMAP
0600
0800
0000
0C00
0C00
1200
1200
1200
2100
2100
7F80
4080
4080
8040
8040
ENDCHAR

STARTCHAR Acircumflex
ENCODING 194
SWIDTH 667 0
DWIDTH 11 0
BBX 10 15 1 0
BITMAP
0C00
1200
0000
0C00
0C00
1200
1200
1200
2100
2100
7F80
4080
4080
8040
8040
ENDCHAR

STARTCHAR Atilde
ENCODING 195
SWIDTH 667 0
DWIDTH 11 0
BBX 10 15 1 0
BITMAP
0D00
1600
0000
0C00
0C00
1200
1200
1200
2100
2100
7F80
4080
4080
8040
8040
ENDCHAR

STARTCHAR Adieresis
ENCODING 196
SWIDTH 667 0
DWIDTH 11 0
BBX 10 15 1 0
BITMAP
1200
1200
0000
0C00
0C00
1200
1200
1200
2100
2100
7F80
4080
4080
8040
8040
ENDCHAR

STARTCHAR Aring
ENCODING 197
SWIDTH 667 0
DWIDTH 11 0
BBX 10 16 1 0
BITMAP
0400
0A00
0400
0000
0C00
0C00
1200
1200
1200
2100
2100
7F80
4080
4080
8040
8040
ENDCHAR

STARTCHAR AE
ENCODING 198
SWIDTH 1000 0
DWIDTH 17 0
BBX 16 12 0 0
BITMAP
07FF
0880
0880
1080
1080
20FE
2080
3F80
4080
4080
8080
80FF
ENDCHAR

STARTCHAR Ccedilla
ENCODING 199
SWIDTH 722 0
DWIDTH 12 0
BBX 9 15 2 -3
BITMAP
1E00
6100
4080
8000
8000
8000
8000
8000
8000
4080
6100
1E00
0800
0400
1800
ENDCHAR

STARTCHAR Egrave
ENCODING 200
SWIDTH 667 0
DWIDTH 11 0
BBX 8 15 2 0
BITMAP
18
04
00
FF
80
80
80
80
FE
80
80
80
80
80
FF
ENDCHAR

STARTCHAR Eacute
ENCODING 201
SWIDTH 667 0
DWIDTH 11 0
BBX 8 15 2 0
BITMAP
0C
10
00
FF
80
80
80
80
FE
80
80
80
80
80
FF
ENDCHAR

STARTCHAR Ecircumflex
ENCODING 202
SWIDTH 667 0
DWIDTH 11 0
BBX 8 15 2 0
BITMAP
18
24
00
FF
80
80
80
80
FE
80
80
80
80
80
FF
ENDCHAR

STARTCHAR Edieresis
ENCODING 203
SWIDTH 667 0
DWIDTH 11 0
BBX 8 15 2 0
BITMAP
24
24
00
FF
80
80
80
80
FE
80
80
80
80
80
FF
ENDCHAR

STARTCHAR Igrave
ENCODING 204
SWIDTH 278 0
DWIDTH 4 0
BBX 3 15 0 0
BITMAP
C0
20
00
20
20
20
20
20
20
20
20
20
20
20
20
ENDCHAR

STARTCHAR Iacute
ENCODING 205
SWIDTH 278 0
DWIDTH 4 0
BBX 3 15 2 0
BITMAP
60
80
00
80
80
80
80
80
80
80
80
80
80
80
80
ENDCHAR

STARTCHAR Icircumflex
ENCODING 206
SWIDTH 278 0
DWIDTH 4 0
BBX 4 15 1 0
BITMAP
60
90
00
40
40
40
40
40
40
40
40
40
40
40
40
ENDCHAR

STARTCHAR Idieresis
ENCODING 207
SWIDTH 278 0
DWIDTH 4 0
BBX 4 15 1 0
BITMAP
90
90
00
40
40
40
40
40
40
40
40
40
40
40
40
ENDCHAR

STARTCHAR Gbreve
ENCODING 208
SWIDTH 778 0
DWIDTH 13 0
BBX 10 15 2 0
BITMAP
1100
0E00
0000
1F00
6080
4040
8000
8000
8000
83C0
8040
8040
4040
6180
1E00
ENDCHAR

STARTCHAR Ntilde
ENCODING 209
SWIDTH 722 0
DWIDTH 12 0
BBX 9 15 2 0
BITMAP
1A00
2C00
0000
8080
C080
A080
A080
9080
8880
8880
8480
8280
8180
8180
8080
ENDCHAR

STARTCHAR Ograve
ENCODING 210
SWIDTH 778 0
DWIDTH 13 0
BBX 10 15 2 0
BITMAP
1800
0400
0000
1E00
6180
4080
8040
8040
8040
8040
8040
8040
4080
6180
1E00
ENDCHAR

STARTCHAR Oacute
ENCODING 211
SWIDTH 778 0
DWIDTH 13 0
BBX 10 15 2 0
BITMAP
0600
0800
0000
1E00
6180
4080
8040
8040
8040
8040
8040
8040
4080
6180
1E00
ENDCHAR

STARTCHAR Ocircumflex
ENCODING 212
SWIDTH 778 0
DWIDTH 13 0
BBX 10 15 2 0
BITMAP
0C00
1200
0000
1E00
6180
4080
8040
8040
8040
8040
8040
8040
4080
6180
1E00
ENDCHAR

STARTCHAR Otilde
ENCODING 213
SWIDTH 778 0
DWIDTH 13 0
BBX 10 15 2 0
BITMAP
0D00
1600
0000
1E00
6180
4080
8040
8040
8040
8040
8040
8040
4080
6180
1E00
ENDCHAR

STARTCHAR Odieresis
ENCODING 214
SWIDTH 778 0
DWIDTH 13 0
BBX 10 15 2 0
BITMAP
1200
1200
0000
1E00
6180
4080
8040
8040
8040
8040
8040
8040
4080
6180
1E00
ENDCHAR

STARTCHAR multiply
ENCODING 215
SWIDTH 584 0
DWIDTH 10 0
BBX 8 7 1 3
BITMAP
81
42
24
18
24
42
81
ENDCHAR

STARTCHAR Oslash
ENCODING 216
SWIDTH 778 0
DWIDTH 13 0
BBX 10 12 2 0
BITMAP
1E40
6180
4180
8240
8440
8440
8840
9040
9040
6080
6180
9E00
ENDCHAR

STARTCHAR Ugrave
ENCODING 217
SWIDTH 722 0
DWIDTH 12 0
BBX 9 15 2 0
BITMAP
3000
0800
0000
8080
8080
8080
8080
8080
8080
8080
8080
8080
8080
4100
3E00
ENDCHAR

STARTCHAR Uacute
ENCODING 218
SWIDTH 722 0
DWIDTH 12 0
BBX 9 15 2 0
BITMAP
0C00
1000
0000
8080
8080
8080
8080
8080
8080
8080
8080
8080
8080
4100
3E00
ENDCHAR

STARTCHAR Ucircumflex
ENCODING 219
SWIDTH 722 0
DWIDTH 12 0
BBX 9 15 2 0
BITMAP
1800
2400
0000
8080
8080
8080
8080
8080
8080
8080
8080
8080
8080
4100
3E00
ENDCHAR

STARTCHAR Udieresis
ENCODING 220
SWIDTH 722 0
DWIDTH 12 0
BBX 9 15 2 0
BITMAP
1200
1200
0000
8080
8080
8080
8080
8080
8080
8080
8080
8080
8080
4100
3E00
ENDCHAR

STARTCHAR Idotaccent
ENCODING 221
SWIDTH 278 0
DWIDTH 4 0
BBX 1 15 2 0
BITMAP
80
80
00
80
80
80
80
80
80
80
80
80
80
80
80
ENDCHAR

STARTCHAR Scedilla
ENCODING 222
SWIDTH 667 0
DWIDTH 11 0
BBX 8 15 2 -3
BITMAP
3C
42
81
80
40
38
06
01
01
81
42
3C
08
04
18
ENDCHAR

STARTCHAR germandbls
ENCODING 223
SWIDTH 611 0
DWIDTH 10 0
BBX 8 12 2 0
BITMAP
78
CC
84
8C
88
98
84
82
81
81
B3
9E
ENDCHAR

STARTCHAR agrave
ENCODING 224
SWIDTH 556 0
DWIDTH 9 0
BBX 8 12 1 0
BITMAP
30
08
00
7C
86
82
06
7A
82
82
86
7B
ENDCHAR

STARTCHAR aacute
ENCODING 225
SWIDTH 556 0
DWIDTH 9 0
BBX 8 12 1 0
BITMAP
18
20
00
7C
86
82
06
7A
82
82
86
7B
ENDCHAR

STARTCHAR acircumflex
ENCODING 226
SWIDTH 556 0
DWIDTH 9 0
BBX 8 12 1 0
BITMAP
18
24
00
7C
86
82
06
7A
82
82
86
7B
ENDCHAR

STARTCHAR atilde
ENCODING 227
SWIDTH 556 0
DWIDTH 9 0
BBX 8 12 1 0
BITMAP
34
58
00
7C
86
82
06
7A
82
82
86
7B
ENDCHAR

STARTCHAR adieresis
ENCODING 228
SWIDTH 556 0
DWIDTH 9 0
BBX 8 12 1 0
BITMAP
24
24
00
7C
86
82
06
7A
82
82
86
7B
ENDCHAR

STARTCHAR aring
ENCODING 229
SWIDTH 556 0
DWIDTH 9 0
BBX 8 13 1 0
BITMAP
10
28
10
00
7C
86
82
06
7A
82
82
86
7B
ENDCHAR

STARTCHAR ae
ENCODING 230
SWIDTH 889 0
DWIDTH 15 0
BBX 13 9 1 0
BITMAP
7CE0
8710
8208
0608
7BF8
8200
8200
8708
78F0
ENDCHAR

STARTCHAR ccedilla
ENCODING 231
SWIDTH 500 0
DWIDTH 9 0
BBX 7 12 1 -3
BITMAP
3C
42
82
80
80
80
82
42
3C
10
08
30
ENDCHAR

STARTCHAR egrave
ENCODING 232
SWIDTH 556 0
DWIDTH 9 0
BBX 7 12 1 0
BITMAP
60
10
00
38
44
82
82
FE
80
80
42
3C
ENDCHAR

STARTCHAR eacute
ENCODING 233
SWIDTH 556 0
DWIDTH 9 0
BBX 7 12 1 0
BITMAP
0C
10
00
38
44
82
82
FE
80
80
42
3C
ENDCHAR

STARTCHAR ecircumflex
ENCODING 234
SWIDTH 556 0
DWIDTH 9 0
BBX 7 12 1 0
BITMAP
18
24
00
38
44
82
82
FE
80
80
42
3C
ENDCHAR

STARTCHAR edieresis
ENCODING 235
SWIDTH 556 0
DWIDTH 9 0
BBX 7 12 1 0
BITMAP
24
24
00
38
44
82
82
FE
80
80
42
3C
ENDCHAR

STARTCHAR igrave
ENCODING 236
SWIDTH 278 0
DWIDTH 5 0
BBX 3 12 0 0
BITMAP
C0
20
00
20
20
20
20
20
20
20
20
20
ENDCHAR

STARTCHAR iacute
ENCODING 237
SWIDTH 278 0
DWIDTH 5 0
BBX 3 12 2 0
BITMAP
60
80
00
80
80
80
80
80
80
80
80
80
ENDCHAR

STARTCHAR icircumflex
ENCODING 238
SWIDTH 278 0
DWIDTH 5 0
BBX 4 12 1 0
BITMAP
60
90
00
40
40
40
40
40
40
40
40
40
ENDCHAR

STARTCHAR idieresis
ENCODING 239
SWIDTH 278 0
DWIDTH 5 0
BBX 4 12 1 0
BITMAP
90
90
00
40
40
40
40
40
40
40
40
40
ENDCHAR

STARTCHAR gbreve
ENCODING 240
SWIDTH 556 0
DWIDTH 9 0
BBX 7 15 1 -3
BITMAP
44
38
00
3A
46
82
82
82
82
82
46
3A
02
84
78
ENDCHAR

STARTCHAR ntilde
ENCODING 241
SWIDTH 556 0
DWIDTH 9 0
BBX 7 12 1 0
BITMAP
34
58
00
B8
C4
82
82
82
82
82
82
82
ENDCHAR

STARTCHAR ograve
ENCODING 242
SWIDTH 556 0
DWIDTH 9 0
BBX 7 12 1 0
BITMAP
30
08
00
38
44
82
82
82
82
82
44
38
ENDCHAR

STARTCHAR oacute
ENCODING 243
SWIDTH 556 0
DWIDTH 9 0
BBX 7 12 1 0
BITMAP
0C
10
00
38
44
82
82
82
82
82
44
38
ENDCHAR

STARTCHAR ocircumflex
ENCODING 244
SWIDTH 556 0
DWIDTH 9 0
BBX 7 12 1 0
BITMAP
18
24
00
38
44
82
82
82
82
82
44
38
ENDCHAR

STARTCHAR otilde
ENCODING 245
SWIDTH 556 0
DWIDTH 9 0
BBX 7 12 1 0
BITMAP
34
58
00
38
44
82
82
82
82
82
44
38
ENDCHAR

STARTCHAR odieresis
ENCODING 246
SWIDTH 556 0
DWIDTH 9 0
BBX 7 12 1 0
BITMAP
24
24
00
38
44
82
82
82
82
82
44
38
ENDCHAR

STARTCHAR divide
ENCODING 247
SWIDTH 584 0
DWIDTH 10 0
BBX 8 7 1 3
BITMAP
18
18
00
FF
00
18
18
ENDCHAR

STARTCHAR oslash
ENCODING 248
SWIDTH 611 0
DWIDTH 9 0
BBX 7 9 1 0
BITMAP
3A
44
8A
8A
92
A2
A2
44
B8
ENDCHAR

STARTCHAR ugrave
ENCODING 249
SWIDTH 556 0
DWIDTH 9 0
BBX 7 12 1 0
BITMAP
60
10
00
82
82
82
82
82
82
82
46
3A
ENDCHAR

STARTCHAR uacute
ENCODING 250
SWIDTH 556 0
DWIDTH 9 0
BBX 7 12 1 0
BITMAP
0C
10
00
82
82
82
82
82
82
82
46
3A
ENDCHAR

STARTCHAR ucircumflex
ENCODING 251
SWIDTH 556 0
DWIDTH 9 0
BBX 7 12 1 0
BITMAP
18
24
00
82
82
82
82
82
82
82
46
3A
ENDCHAR

STARTCHAR udieresis
ENCODING 252
SWIDTH 556 0
DWIDTH 9 0
BBX 7 12 1 0
BITMAP
24
24
00
82
82
82
82
82
82
82
46
3A
ENDCHAR

STARTCHAR dotlessi
ENCODING 253
SWIDTH 278 0
DWIDTH 5 0
BBX 1 9 2 0
BITMAP
80
80
80
80
80
80
80
80
80
ENDCHAR

STARTCHAR scedilla
ENCODING 254
SWIDTH 500 0
DWIDTH 9 0
BBX 7 12 1 -3
BITMAP
7C
82
82
60
1C
02
82
82
7C
10
08
30
ENDCHAR

STARTCHAR ydieresis
ENCODING 255
SWIDTH 500 0
DWIDTH 9 0
BBX 9 15 0 -3
BITMAP
1200
1200
0000
8080
4080
4100
2100
2200
1200
1400
0C00
0800
1000
1000
6000
ENDCHAR
ENDFONT
